<svg width="20" height="23" viewBox="0 0 20 23" fill="none" xmlns="http://www.w3.org/2000/svg">
<path d="M16.7045 12.2313C16.729 10.4558 17.7481 8.77582 19.3648 7.84586C18.3449 6.48301 16.6366 5.61892 14.8592 5.5669C12.9636 5.38073 11.1258 6.62821 10.1598 6.62821C9.17508 6.62821 7.68777 5.58538 6.08619 5.61621C3.99859 5.67931 2.05242 6.7898 1.03676 8.49742C-1.14651 12.0341 0.482015 17.2317 2.5734 20.0905C3.61977 21.4903 4.84267 23.054 6.44281 22.9986C8.00865 22.9378 8.59346 22.0644 10.4836 22.0644C12.3561 22.0644 12.9048 22.9986 14.5374 22.9633C16.2176 22.9378 17.2762 21.5572 18.2859 20.1441C19.0377 19.1467 19.6162 18.0443 20 16.8778C18.0254 16.0964 16.7068 14.2372 16.7045 12.2313Z" fill="#121212" fill-opacity="0.61"/>
<path d="M13.6208 3.68684C14.5369 2.65787 14.9882 1.3353 14.8789 0C13.4793 0.137541 12.1864 0.763409 11.2579 1.7529C10.35 2.71969 9.87749 4.01898 9.96681 5.30324C11.3669 5.31673 12.7434 4.70783 13.6208 3.68684Z" fill="#121212" fill-opacity="0.61"/>
</svg>
