<svg width="32" height="34" viewBox="0 0 32 34" fill="none" xmlns="http://www.w3.org/2000/svg">
<path d="M12.6676 16.588C12.6676 14.6795 14.1595 13.1319 16.0004 13.1319C17.8412 13.1319 19.334 14.6795 19.334 16.588C19.334 18.4965 17.8412 20.0441 16.0004 20.0441C14.1595 20.0441 12.6676 18.4965 12.6676 16.588ZM10.8655 16.588C10.8655 19.5282 13.1644 21.9116 16.0004 21.9116C18.8364 21.9116 21.1352 19.5282 21.1352 16.588C21.1352 13.6478 18.8364 11.2644 16.0004 11.2644C13.1644 11.2644 10.8655 13.6478 10.8655 16.588ZM20.1385 11.0533C20.1384 11.2994 20.2087 11.54 20.3405 11.7446C20.4723 11.9493 20.6596 12.1088 20.8789 12.203C21.0981 12.2973 21.3394 12.322 21.5722 12.2741C21.805 12.2262 22.0188 12.1078 22.1867 11.9339C22.3546 11.76 22.469 11.5384 22.5154 11.297C22.5618 11.0557 22.5381 10.8056 22.4474 10.5782C22.3566 10.3508 22.2029 10.1565 22.0056 10.0197C21.8083 9.8829 21.5763 9.80983 21.339 9.80974H21.3385C21.0204 9.80989 20.7153 9.94095 20.4903 10.1741C20.2653 10.4073 20.1388 10.7235 20.1385 11.0533V11.0533ZM11.9604 25.0269C10.9854 24.9809 10.4555 24.8125 10.1033 24.6703C9.63645 24.4818 9.30333 24.2574 8.95309 23.8948C8.60285 23.5322 8.38605 23.1871 8.20509 22.7031C8.06781 22.3382 7.90541 21.7886 7.86109 20.7778C7.81261 19.685 7.80293 19.3567 7.80293 16.5881C7.80293 13.8195 7.81341 13.4921 7.86109 12.3984C7.90549 11.3876 8.06909 10.8391 8.20509 10.4731C8.38685 9.98905 8.60333 9.64369 8.95309 9.28058C9.30285 8.91747 9.63565 8.6927 10.1033 8.50509C10.4553 8.36276 10.9854 8.1944 11.9604 8.14845C13.0144 8.09818 13.3311 8.08815 16.0004 8.08815C18.6696 8.08815 18.9866 8.09901 20.0416 8.14845C21.0165 8.19448 21.5456 8.36409 21.8986 8.50509C22.3655 8.6927 22.6986 8.91796 23.0488 9.28058C23.3991 9.64319 23.6151 9.98905 23.7968 10.4731C23.9341 10.838 24.0965 11.3876 24.1408 12.3984C24.1893 13.4921 24.199 13.8195 24.199 16.5881C24.199 19.3567 24.1893 19.6841 24.1408 20.7778C24.0964 21.7886 23.9332 22.338 23.7968 22.7031C23.6151 23.1871 23.3986 23.5325 23.0488 23.8948C22.6991 24.2571 22.3655 24.4818 21.8986 24.6703C21.5466 24.8126 21.0165 24.981 20.0416 25.0269C18.9875 25.0772 18.6708 25.0872 16.0004 25.0872C13.3299 25.0872 13.0141 25.0772 11.9604 25.0269V25.0269ZM11.8776 6.28329C10.813 6.33355 10.0856 6.50856 9.45029 6.76484C8.79237 7.0295 8.23541 7.38457 7.67885 7.96067C7.12229 8.53677 6.78069 9.11511 6.52541 9.79721C6.27821 10.4563 6.10941 11.21 6.06093 12.3137C6.01165 13.4191 6.00037 13.7725 6.00037 16.588C6.00037 19.4035 6.01165 19.7569 6.06093 20.8623C6.10941 21.9661 6.27821 22.7198 6.52541 23.3788C6.78069 24.0605 7.12237 24.6395 7.67885 25.2154C8.23533 25.7912 8.79237 26.1458 9.45029 26.4112C10.0868 26.6675 10.813 26.8425 11.8776 26.8927C12.9444 26.943 13.2847 26.9555 16.0004 26.9555C18.716 26.9555 19.0569 26.9438 20.1232 26.8927C21.1878 26.8425 21.9148 26.6675 22.5504 26.4112C23.208 26.1458 23.7653 25.7915 24.3219 25.2154C24.8784 24.6393 25.2193 24.0605 25.4753 23.3788C25.7225 22.7198 25.8921 21.966 25.9398 20.8623C25.9883 19.7561 25.9996 19.4035 25.9996 16.588C25.9996 13.7725 25.9883 13.4191 25.9398 12.3137C25.8913 11.2099 25.7225 10.4558 25.4753 9.79721C25.2193 9.11553 24.8776 8.53768 24.3219 7.96067C23.7662 7.38366 23.208 7.0295 22.5512 6.76484C21.9148 6.50856 21.1877 6.33272 20.124 6.28329C19.0577 6.23303 18.7168 6.2205 16.0012 6.2205C13.2855 6.2205 12.9444 6.2322 11.8776 6.28329Z" fill="#121212" fill-opacity="0.61"/>
</svg>
