<svg width="23" height="21" viewBox="0 0 23 21" fill="none" xmlns="http://www.w3.org/2000/svg">
<path d="M22.8101 0.364661C22.5848 0.0366867 22.2112 -0.0849406 21.8791 0.0610122L0.781267 9.17237C0.359775 9.35544 0.0639225 9.79938 0.00899864 10.331C-0.0453989 10.8601 0.14973 11.3734 0.515773 11.6689L3.5315 14.1291C3.82367 14.3675 4.19936 14.3931 4.51223 14.1958L11.054 10.0732L5.95552 14.6227C5.71617 14.8364 5.57316 15.1772 5.57316 15.5341V19.7483C5.57316 20.183 5.77268 20.5812 6.0938 20.788C6.41544 20.9948 6.80395 20.9742 7.10945 20.7335L9.40064 18.9172L11.6537 20.7532C11.8512 20.9149 12.0863 21 12.3235 21C12.4037 21 12.4843 20.9901 12.5636 20.9704C12.88 20.8916 13.1599 20.658 13.3316 20.3296L22.877 1.5197C23.0628 1.15755 23.0362 0.694104 22.8101 0.364661ZM12.2732 19.3077L9.93987 17.4063C9.77756 17.2738 9.5905 17.2075 9.40362 17.2075C9.22077 17.2075 9.03775 17.2711 8.87754 17.3982L6.92151 18.9487V15.7719L15.9243 7.73842C16.3263 7.37962 16.4276 6.72661 16.1596 6.21955C15.8915 5.71249 15.3547 5.54116 14.9109 5.82091L4.0946 12.6373L1.54388 10.5564L20.972 2.16621L12.2732 19.3077Z" fill="#121212" fill-opacity="0.61"/>
</svg>
