<svg width="30" height="26" viewBox="0 0 30 26" fill="none" xmlns="http://www.w3.org/2000/svg">
<path d="M17.5 13L13.125 15.1667V10.8333L17.5 13Z" stroke="black" stroke-opacity="0.61" stroke-width="1.5" stroke-linecap="round" stroke-linejoin="round"/>
<path d="M2.5 13.7659V12.233C2.5 9.09675 2.5 7.52808 3.63125 6.5195C4.76375 5.50983 6.54625 5.4665 10.11 5.37875C11.7975 5.33758 13.5225 5.30833 15 5.30833C16.4762 5.30833 18.2012 5.33758 19.89 5.37875C23.4537 5.4665 25.2362 5.50983 26.3675 6.5195C27.5 7.52808 27.5 9.09783 27.5 12.233V13.7659C27.5 16.9033 27.5 18.4708 26.3687 19.4805C25.2362 20.4891 23.455 20.5335 19.89 20.6202C18.2025 20.6624 16.4775 20.6917 15 20.6917C13.3697 20.6874 11.7395 20.6636 10.11 20.6202C6.54625 20.5335 4.76375 20.4902 3.63125 19.4805C2.5 18.4708 2.5 16.9022 2.5 13.767V13.7659Z" stroke="black" stroke-opacity="0.61" stroke-width="1.5"/>
</svg>
